<svg xmlns="http://www.w3.org/2000/svg" width="25.448" height="25.477" viewBox="0 0 25.448 25.477">
  <path id="Path_4" data-name="Path 4" d="M-869.844-470.361A12.637,12.637,0,0,0-871-474.509a12.752,12.752,0,0,0-2.519-3.566,12.684,12.684,0,0,0-3.9-2.672,7.679,7.679,0,0,0,1.763-2.373,7.65,7.65,0,0,0,.735-3.35A7.644,7.644,0,0,0-882.539-494h-.1a7.57,7.57,0,0,0-5.318,2.266,7.571,7.571,0,0,0-2.2,5.352,7.646,7.646,0,0,0,.755,3.3,7.692,7.692,0,0,0,1.744,2.335,12.677,12.677,0,0,0-3.9,2.672,12.747,12.747,0,0,0-2.523,3.576,12.636,12.636,0,0,0-1.132,3.989l-.024.024v.186a1.544,1.544,0,0,0-.02.246q0,.023,0,.046a1.52,1.52,0,0,0,.46,1.048,1.52,1.52,0,0,0,1.068.435,1.527,1.527,0,0,0,1.505-1.257,1.557,1.557,0,0,0,.024-.242,9.675,9.675,0,0,1,9.664-8.74,9.782,9.782,0,0,1,9.671,8.812v.009c0,.019,0,.039.005.058v.034a1.532,1.532,0,0,0,1.515,1.327,1.527,1.527,0,0,0,1.505-1.257,1.524,1.524,0,0,0,.022-.185c0-.031,0-.059,0-.087A1.515,1.515,0,0,0-869.844-470.361Zm-9.412-19.2a4.536,4.536,0,0,1,1.286,3.329,4.577,4.577,0,0,1-4.416,4.416l-.152,0a4.533,4.533,0,0,1-3.283-1.394,4.536,4.536,0,0,1-1.286-3.329,4.578,4.578,0,0,1,4.416-4.416l.152,0A4.533,4.533,0,0,1-879.255-489.561Z" transform="translate(895.26 494.002)" fill="#2c2829"/>
</svg>
