<?xml version="1.0" encoding="utf-8"?>
<!-- Generator: Adobe Illustrator 23.0.2, SVG Export Plug-In . SVG Version: 6.00 Build 0)  -->
<svg version="1.1" id="Livello_1" xmlns="http://www.w3.org/2000/svg" xmlns:xlink="http://www.w3.org/1999/xlink" x="0px" y="0px"
	 viewBox="0 0 5 10" style="enable-background:new 0 0 5 10;" xml:space="preserve">
<style type="text/css">
	.st0{fill:#534E4E;}
</style>
<g>
	<path class="st0" d="M4.5,10h-4C0.22,10,0,9.78,0,9.5v-9C0,0.22,0.22,0,0.5,0h4C4.78,0,5,0.22,5,0.5v9C5,9.78,4.78,10,4.5,10z"/>
</g>
<g>
	<path class="st0" d="M62.5,10h-4C58.22,10,58,9.78,58,9.5v-9C58,0.22,58.22,0,58.5,0h4C62.78,0,63,0.22,63,0.5v9
		C63,9.78,62.78,10,62.5,10z"/>
</g>
<g>
	<path class="st0" d="M69.5,10h-4C65.22,10,65,9.78,65,9.5v-9C65,0.22,65.22,0,65.5,0h4C69.78,0,70,0.22,70,0.5v9
		C70,9.78,69.78,10,69.5,10z"/>
</g>
<g>
	<path class="st0" d="M130.5,10h-4c-0.28,0-0.5-0.22-0.5-0.5v-9c0-0.28,0.22-0.5,0.5-0.5h4c0.28,0,0.5,0.22,0.5,0.5v9
		C131,9.78,130.78,10,130.5,10z"/>
</g>
<g>
	<path class="st0" d="M137.5,10h-4c-0.28,0-0.5-0.22-0.5-0.5v-9c0-0.28,0.22-0.5,0.5-0.5h4c0.28,0,0.5,0.22,0.5,0.5v9
		C138,9.78,137.78,10,137.5,10z"/>
</g>
<g>
	<path class="st0" d="M144.5,10h-4c-0.28,0-0.5-0.22-0.5-0.5v-9c0-0.28,0.22-0.5,0.5-0.5h4c0.28,0,0.5,0.22,0.5,0.5v9
		C145,9.78,144.78,10,144.5,10z"/>
</g>
</svg>
