<?xml version="1.0" encoding="utf-8"?>
<!-- Generator: Adobe Illustrator 23.0.2, SVG Export Plug-In . SVG Version: 6.00 Build 0)  -->
<svg version="1.1" id="Livello_1" xmlns="http://www.w3.org/2000/svg" xmlns:xlink="http://www.w3.org/1999/xlink" x="0px" y="0px"
	 viewBox="0 0 12 10" style="enable-background:new 0 0 12 10;" xml:space="preserve">
<style type="text/css">
	.st0{fill:#534E4E;}
</style>
<g>
	<path class="st0" d="M-53.5,10h-4c-0.28,0-0.5-0.22-0.5-0.5v-9c0-0.28,0.22-0.5,0.5-0.5h4c0.28,0,0.5,0.22,0.5,0.5v9
		C-53,9.78-53.22,10-53.5,10z"/>
</g>
<g>
	<path class="st0" d="M4.5,10h-4C0.22,10,0,9.78,0,9.5v-9C0,0.22,0.22,0,0.5,0h4C4.78,0,5,0.22,5,0.5v9C5,9.78,4.78,10,4.5,10z"/>
</g>
<g>
	<path class="st0" d="M11.5,10h-4C7.22,10,7,9.78,7,9.5v-9C7,0.22,7.22,0,7.5,0h4C11.78,0,12,0.22,12,0.5v9
		C12,9.78,11.78,10,11.5,10z"/>
</g>
<g>
	<path class="st0" d="M72.5,10h-4C68.22,10,68,9.78,68,9.5v-9C68,0.22,68.22,0,68.5,0h4C72.78,0,73,0.22,73,0.5v9
		C73,9.78,72.78,10,72.5,10z"/>
</g>
<g>
	<path class="st0" d="M79.5,10h-4C75.22,10,75,9.78,75,9.5v-9C75,0.22,75.22,0,75.5,0h4C79.78,0,80,0.22,80,0.5v9
		C80,9.78,79.78,10,79.5,10z"/>
</g>
<g>
	<path class="st0" d="M86.5,10h-4C82.22,10,82,9.78,82,9.5v-9C82,0.22,82.22,0,82.5,0h4C86.78,0,87,0.22,87,0.5v9
		C87,9.78,86.78,10,86.5,10z"/>
</g>
</svg>
