<?xml version="1.0" encoding="utf-8"?>
<!-- Generator: Adobe Illustrator 23.0.2, SVG Export Plug-In . SVG Version: 6.00 Build 0)  -->
<svg version="1.1" id="Livello_1" xmlns="http://www.w3.org/2000/svg" xmlns:xlink="http://www.w3.org/1999/xlink" x="0px" y="0px"
	 viewBox="0 0 19 10" style="enable-background:new 0 0 19 10;" xml:space="preserve">
<style type="text/css">
	.st0{fill:#534E4E;}
</style>
<g>
	<path class="st0" d="M-121.5,10h-4c-0.28,0-0.5-0.22-0.5-0.5v-9c0-0.28,0.22-0.5,0.5-0.5h4c0.28,0,0.5,0.22,0.5,0.5v9
		C-121,9.78-121.22,10-121.5,10z"/>
</g>
<g>
	<path class="st0" d="M-63.5,10h-4c-0.28,0-0.5-0.22-0.5-0.5v-9c0-0.28,0.22-0.5,0.5-0.5h4c0.28,0,0.5,0.22,0.5,0.5v9
		C-63,9.78-63.22,10-63.5,10z"/>
</g>
<g>
	<path class="st0" d="M-56.5,10h-4c-0.28,0-0.5-0.22-0.5-0.5v-9c0-0.28,0.22-0.5,0.5-0.5h4c0.28,0,0.5,0.22,0.5,0.5v9
		C-56,9.78-56.22,10-56.5,10z"/>
</g>
<g>
	<path class="st0" d="M4.5,10h-4C0.22,10,0,9.78,0,9.5v-9C0,0.22,0.22,0,0.5,0h4C4.78,0,5,0.22,5,0.5v9C5,9.78,4.78,10,4.5,10z"/>
</g>
<g>
	<path class="st0" d="M11.5,10h-4C7.22,10,7,9.78,7,9.5v-9C7,0.22,7.22,0,7.5,0h4C11.78,0,12,0.22,12,0.5v9
		C12,9.78,11.78,10,11.5,10z"/>
</g>
<g>
	<path class="st0" d="M18.5,10h-4C14.22,10,14,9.78,14,9.5v-9C14,0.22,14.22,0,14.5,0h4C18.78,0,19,0.22,19,0.5v9
		C19,9.78,18.78,10,18.5,10z"/>
</g>
</svg>
